<svg xmlns="http://www.w3.org/2000/svg" xmlns:xlink="http://www.w3.org/1999/xlink" width="800" zoomAndPan="magnify" viewBox="0 0 600 149.999998" height="200" preserveAspectRatio="xMidYMid meet" version="1.0"><defs><g/></defs><g fill="#03fa6e" fill-opacity="1"><g transform="translate(11.891315, 105.941254)"><g><path d="M 23.546875 0 L 23.546875 -37.761719 L 62.640625 -37.761719 L 62.640625 0 L 80.078125 0 L 80.078125 -90.074219 L 62.640625 -90.074219 L 62.640625 -54.089844 L 23.546875 -54.089844 L 23.546875 -90.074219 L 5.996094 -90.074219 L 5.996094 0 Z M 23.546875 0 "/></g></g></g><g fill="#03fa6e" fill-opacity="1"><g transform="translate(93.857133, 105.941254)"><g><path d="M 70.527344 -29.765625 C 70.527344 -52.535156 58.089844 -66.308594 37.652344 -66.308594 C 17.4375 -66.308594 4.441406 -52.3125 4.441406 -32.429688 L 4.441406 -32.320312 C 4.441406 -12.105469 18.324219 1.664062 39.761719 1.664062 C 52.203125 1.664062 60.976562 -2.222656 67.417969 -6.21875 L 59.753906 -19.882812 C 55.089844 -16.550781 48.3125 -13.773438 40.539062 -13.773438 C 30.875 -13.773438 24.546875 -19.992188 22.769531 -28.210938 L 70.527344 -28.210938 Z M 37.539062 -51.980469 C 46.09375 -51.980469 51.203125 -46.425781 52.535156 -39.09375 L 22.878906 -39.09375 C 24.546875 -46.425781 29.878906 -51.980469 37.539062 -51.980469 Z M 37.539062 -51.980469 "/></g></g></g><g fill="#03fa6e" fill-opacity="1"><g transform="translate(164.716439, 105.941254)"><g><path d="M 23.65625 0 L 23.65625 -46.648438 C 25.101562 -46.980469 32.320312 -47.535156 34.984375 -47.535156 L 44.539062 -47.535156 L 44.539062 -63.753906 L 32.097656 -63.753906 C 26.324219 -63.753906 15.328125 -63.308594 5.996094 -61.308594 L 5.996094 0 Z M 23.65625 0 "/></g></g></g><g fill="#03fa6e" fill-opacity="1"><g transform="translate(209.253326, 105.941254)"><g/></g></g><g fill="#a531b4" fill-opacity="1"><g transform="translate(223.794289, 105.941254)"><g><path d="M 51.867188 1.445312 C 64.085938 1.445312 73.414062 -2 81.414062 -6.996094 L 74.636719 -21.324219 C 66.972656 -16.660156 59.421875 -14.882812 51.867188 -14.882812 C 35.429688 -14.882812 22.324219 -26.765625 22.324219 -44.871094 L 22.324219 -45.09375 C 22.324219 -63.976562 35.542969 -75.304688 51.867188 -75.304688 C 59.421875 -75.304688 66.972656 -73.414062 74.636719 -68.75 L 81.414062 -83.078125 C 73.191406 -88.296875 63.640625 -91.628906 51.867188 -91.628906 C 23.65625 -91.628906 4.554688 -72.75 4.554688 -45.09375 L 4.554688 -44.871094 C 4.554688 -17.214844 23.769531 1.445312 51.867188 1.445312 Z M 51.867188 1.445312 "/></g></g></g><g fill="#a531b4" fill-opacity="1"><g transform="translate(305.537971, 105.941254)"><g><path d="M 39.875 1.777344 C 60.753906 1.777344 75.304688 -12.660156 75.304688 -32.320312 L 75.304688 -32.429688 C 75.304688 -51.980469 60.753906 -66.308594 39.875 -66.308594 C 18.992188 -66.308594 4.554688 -51.980469 4.554688 -32.429688 L 4.554688 -32.320312 C 4.554688 -12.660156 19.105469 1.777344 39.875 1.777344 Z M 39.875 -13.996094 C 29.320312 -13.996094 22.214844 -21.992188 22.214844 -32.320312 L 22.214844 -32.542969 C 22.214844 -42.761719 29.210938 -50.535156 39.875 -50.535156 C 50.648438 -50.535156 57.53125 -42.761719 57.53125 -32.542969 L 57.53125 -32.320312 C 57.53125 -21.992188 50.535156 -13.996094 39.875 -13.996094 Z M 39.875 -13.996094 "/></g></g></g><g fill="#a531b4" fill-opacity="1"><g transform="translate(381.06201, 105.941254)"><g><path d="M 39.875 1.777344 C 51.757812 1.777344 59.753906 0 68.863281 -4.441406 L 68.863281 -90.074219 L 51.3125 -90.074219 L 51.3125 -64.640625 C 47.425781 -65.53125 43.316406 -66.308594 39.207031 -66.308594 C 17.4375 -66.308594 4.554688 -51.980469 4.554688 -32.429688 L 4.554688 -32.210938 C 4.554688 -12.660156 18.105469 1.777344 39.875 1.777344 Z M 39.875 -13.996094 C 28.320312 -13.996094 22.214844 -21.992188 22.214844 -32.210938 L 22.214844 -32.429688 C 22.214844 -42.648438 28.320312 -50.535156 39.875 -50.535156 C 43.761719 -50.535156 47.871094 -49.648438 51.3125 -48.871094 L 51.3125 -15.4375 C 47.871094 -14.550781 44.09375 -13.996094 39.875 -13.996094 Z M 39.875 -13.996094 "/></g></g></g><g fill="#a531b4" fill-opacity="1"><g transform="translate(451.810266, 105.941254)"><g><path d="M 70.527344 -29.765625 C 70.527344 -52.535156 58.089844 -66.308594 37.652344 -66.308594 C 17.4375 -66.308594 4.441406 -52.3125 4.441406 -32.429688 L 4.441406 -32.320312 C 4.441406 -12.105469 18.324219 1.664062 39.761719 1.664062 C 52.203125 1.664062 60.976562 -2.222656 67.417969 -6.21875 L 59.753906 -19.882812 C 55.089844 -16.550781 48.3125 -13.773438 40.539062 -13.773438 C 30.875 -13.773438 24.546875 -19.992188 22.769531 -28.210938 L 70.527344 -28.210938 Z M 37.539062 -51.980469 C 46.09375 -51.980469 51.203125 -46.425781 52.535156 -39.09375 L 22.878906 -39.09375 C 24.546875 -46.425781 29.878906 -51.980469 37.539062 -51.980469 Z M 37.539062 -51.980469 "/></g></g></g><g fill="#a531b4" fill-opacity="1"><g transform="translate(522.66958, 105.941254)"><g><path d="M 32.542969 1.445312 C 51.535156 1.445312 60.976562 -5.441406 60.976562 -19.214844 C 60.976562 -29.320312 54.3125 -35.542969 39.984375 -39.539062 L 35.429688 -40.761719 C 27.765625 -42.984375 24.65625 -44.539062 24.65625 -47.757812 C 24.65625 -51.3125 28.433594 -52.535156 34.875 -52.535156 C 40.316406 -52.535156 47.980469 -51.3125 53.644531 -48.3125 L 58.753906 -60.644531 C 52.203125 -64.085938 42.425781 -66.195312 32.765625 -66.195312 C 16.214844 -66.195312 6.886719 -58.976562 6.886719 -47.203125 C 6.886719 -36.652344 12.882812 -30.433594 26.210938 -26.878906 L 32.210938 -25.324219 C 41.539062 -22.769531 43.648438 -21.324219 43.648438 -17.882812 C 43.648438 -13.21875 38.539062 -12.21875 30.988281 -12.21875 C 24.546875 -12.21875 16.769531 -13.660156 9.328125 -16.882812 L 4.554688 -4.109375 C 13.660156 -0.332031 22.546875 1.445312 32.542969 1.445312 Z M 32.542969 1.445312 "/></g></g></g></svg>